<svg width="678" height="370" viewBox="0 0 678 370" fill="none" xmlns="http://www.w3.org/2000/svg">
<g clip-path="url(#clip0_1846_48)">
<path d="M130.226 117.96C130.226 126.6 134.906 132 144.146 132C157.106 132 164.426 120.72 164.426 108.12C164.426 99.4796 159.746 94.1996 150.746 94.1996C137.786 94.1996 130.226 105.36 130.226 117.96ZM190.466 104.76C190.466 123.24 183.146 138.36 170.666 147.48L183.386 169.8H151.946L146.306 156.48C144.266 156.72 142.226 156.84 140.066 156.84C118.226 156.84 104.066 142.44 104.066 121.32C104.066 90.5996 124.226 69.5996 154.106 69.5996C176.426 69.5996 190.466 83.6396 190.466 104.76Z" fill="white"/>
<path d="M276.637 88.3196L264.637 156H237.997L239.797 145.8C234.997 151.56 227.317 156.48 217.237 156.48C201.637 156.48 194.437 145.08 197.557 127.56L204.517 88.3196H231.037L224.677 124.2C223.477 130.68 226.597 134.64 232.357 134.64C238.237 134.64 242.437 130.68 243.637 124.32L249.997 88.3196H276.637Z" fill="white"/>
<path d="M316.029 108.36C311.349 108.36 307.989 110.76 306.309 115.92H322.269C323.229 110.52 319.989 108.36 316.029 108.36ZM345.069 131.64C339.669 146.04 324.549 156.84 307.509 156.84C287.229 156.84 275.229 143.76 279.069 122.16C282.909 100.56 299.469 87.4796 319.749 87.4796C340.029 87.4796 352.029 100.32 348.309 121.56C347.949 123.24 347.589 125.16 346.989 126.84H304.269C303.549 133.68 306.189 135.6 309.909 135.6C313.389 135.6 315.549 133.68 316.869 131.64H345.069Z" fill="white"/>
<path d="M389.974 108.36C385.294 108.36 381.934 110.76 380.254 115.92H396.214C397.174 110.52 393.934 108.36 389.974 108.36ZM419.014 131.64C413.614 146.04 398.494 156.84 381.454 156.84C361.174 156.84 349.174 143.76 353.014 122.16C356.854 100.56 373.414 87.4796 393.694 87.4796C413.974 87.4796 425.974 100.32 422.254 121.56C421.894 123.24 421.534 125.16 420.934 126.84H378.214C377.494 133.68 380.134 135.6 383.854 135.6C387.334 135.6 389.494 133.68 390.814 131.64H419.014Z" fill="white"/>
<path d="M456.119 128.28L451.199 156H424.559L436.559 88.3196H463.199L461.039 100.8C467.639 93.2396 476.639 87.8396 485.399 87.8396L480.479 116.28H472.919C463.319 116.28 457.799 119.04 456.119 128.28Z" fill="white"/>
<path d="M217.828 231.96C217.828 240.6 222.508 246 231.748 246C244.708 246 252.028 234.72 252.028 222.12C252.028 213.48 247.348 208.2 238.348 208.2C225.388 208.2 217.828 219.36 217.828 231.96ZM278.068 218.76C278.068 237.24 270.748 252.36 258.268 261.48L270.988 283.8H239.548L233.908 270.48C231.868 270.72 229.828 270.84 227.668 270.84C205.828 270.84 191.668 256.44 191.668 235.32C191.668 204.6 211.828 183.6 241.708 183.6C264.028 183.6 278.068 197.64 278.068 218.76Z" fill="white"/>
<path d="M364.238 202.32L352.238 270H325.598L327.398 259.8C322.598 265.56 314.918 270.48 304.838 270.48C289.238 270.48 282.038 259.08 285.158 241.56L292.118 202.32H318.638L312.278 238.2C311.078 244.68 314.198 248.64 319.958 248.64C325.838 248.64 330.038 244.68 331.238 238.32L337.598 202.32H364.238Z" fill="white"/>
<path d="M403.63 222.36C398.95 222.36 395.59 224.76 393.91 229.92H409.87C410.83 224.52 407.59 222.36 403.63 222.36ZM432.67 245.64C427.27 260.04 412.15 270.84 395.11 270.84C374.83 270.84 362.83 257.76 366.67 236.16C370.51 214.56 387.07 201.48 407.35 201.48C427.63 201.48 439.63 214.32 435.91 235.56C435.55 237.24 435.19 239.16 434.59 240.84H391.87C391.15 247.68 393.79 249.6 397.51 249.6C400.99 249.6 403.15 247.68 404.47 245.64H432.67Z" fill="white"/>
<path d="M501.335 248.76C501.335 263.04 487.655 270.84 469.175 270.84C449.735 270.84 436.535 261 438.935 246.6H464.495C464.375 250.68 467.255 252.48 471.335 252.48C474.095 252.48 476.375 251.04 476.375 249.24C476.375 241.56 443.015 245.4 443.015 223.08C443.015 210.96 454.535 201.48 472.415 201.48C492.335 201.48 503.015 212.4 502.535 225.72H478.895C478.895 222.12 476.615 219.96 472.295 219.96C469.655 219.96 467.495 221.04 467.495 223.08C467.495 230.4 501.335 228 501.335 248.76Z" fill="white"/>
<path d="M516.828 242.28L519.948 224.52H511.548L515.508 202.32H523.908L526.788 186H553.428L550.548 202.32H561.588L557.628 224.52H546.588L543.348 242.76C542.868 245.88 544.068 247.32 547.548 247.32H553.908L549.828 270H539.748C523.908 270 513.108 263.28 516.828 242.28Z" fill="white"/>
<path d="M74 295.667L63.0563 269L0 325L74 295.667Z" fill="#6DD3A8"/>
<path d="M136.92 326.199L125.992 313.911L118.935 354.744L136.92 326.199Z" fill="#0ACDFF"/>
<path d="M57.3802 213.279L59.1703 196.933L24.1425 219.072L57.3802 213.279Z" fill="#FC8E04"/>
<path d="M640.806 173.51H648.845V160.696H658.896V173.51H666.935V153.913L653.871 144.032L640.806 153.913V173.51ZM638.629 175.688V152.825L653.871 141.311L669.113 152.825V175.688H656.719V162.874H651.023V175.688H638.629Z" fill="#FFCC33"/>
<path d="M640.224 49.5508C636.611 49.5508 633.448 51.1045 631.476 53.7308C629.504 51.1045 626.34 49.5508 622.727 49.5508C619.851 49.554 617.094 50.698 615.06 52.7317C613.026 54.7655 611.882 57.5229 611.879 60.399C611.879 72.647 630.039 82.5608 630.813 82.9703C631.016 83.0799 631.244 83.1373 631.476 83.1373C631.707 83.1373 631.935 83.0799 632.139 82.9703C632.912 82.5608 651.072 72.647 651.072 60.399C651.069 57.5229 649.925 54.7655 647.892 52.7317C645.858 50.698 643.1 49.554 640.224 49.5508ZM631.476 80.1357C628.281 78.2741 614.678 69.7932 614.678 60.399C614.681 58.2652 615.53 56.2196 617.039 54.7108C618.548 53.202 620.593 52.3531 622.727 52.3503C626.13 52.3503 628.988 54.163 630.181 57.0745C630.286 57.3313 630.466 57.5509 630.696 57.7054C630.927 57.8599 631.198 57.9424 631.476 57.9424C631.753 57.9424 632.025 57.8599 632.255 57.7054C632.486 57.5509 632.665 57.3313 632.77 57.0745C633.964 54.1578 636.821 52.3503 640.224 52.3503C642.358 52.3531 644.404 53.202 645.912 54.7108C647.421 56.2196 648.27 58.2652 648.273 60.399C648.273 69.7792 634.667 78.2723 631.476 80.1357Z" fill="#FF8AAC"/>
<path fill-rule="evenodd" clip-rule="evenodd" d="M544.128 41.8068C556.299 41.8068 566.337 36.1603 566.337 28.7422C566.337 21.3242 556.299 15.6777 544.128 15.6777C531.957 15.6777 521.918 21.3242 521.918 28.7422C521.918 36.1603 531.957 41.8068 544.128 41.8068ZM544.128 18.2906C555.047 18.2906 563.724 23.1715 563.724 28.7422C563.724 34.313 555.047 39.1939 544.128 39.1939C533.208 39.1939 524.531 34.313 524.531 28.7422C524.531 23.1715 533.208 18.2906 544.128 18.2906Z" fill="#BE7DFF"/>
<path d="M523.225 14.372L523.225 14.3727L527.144 20.9042L527.144 20.9044L527.144 20.9046L527.144 20.9046L527.144 20.9045L527.143 20.9037L523.224 14.3722L523.224 14.372L523.225 14.3719L523.225 14.3719L523.225 14.372ZM565.03 14.3727L565.031 14.372L565.031 14.3719L565.031 14.3719L565.031 14.3719L565.031 14.3719L565.031 14.372L565.031 14.372L565.031 14.3721L565.031 14.3722L561.112 20.9037L561.112 20.9045L561.112 20.9045L561.112 20.9046L561.112 20.9046L561.112 20.9046L561.112 20.9045L561.112 20.9044L561.112 20.9043L561.112 20.9042L565.03 14.3727ZM550.66 27.4366C550.66 29.1691 549.972 30.8306 548.747 32.0556C547.522 33.2807 545.86 33.9689 544.128 33.9689C542.395 33.9689 540.734 33.2807 539.509 32.0556C538.284 30.8306 537.596 29.1691 537.596 27.4366C537.596 25.7042 538.284 24.0426 539.509 22.8176C540.734 21.5926 542.395 20.9044 544.128 20.9044C545.86 20.9044 547.522 21.5926 548.747 22.8176C549.972 24.0426 550.66 25.7042 550.66 27.4366Z" stroke="#BE7DFF" stroke-width="2.6129"/>
</g>
<defs>
<clipPath id="clip0_1846_48">
<rect width="678" height="370" fill="white"/>
</clipPath>
</defs>
</svg>
